<?xml version="1.0" encoding="UTF-8"?><svg id="Layer_2" xmlns="http://www.w3.org/2000/svg" viewBox="0 0 176 176"><defs><style>.cls-1{fill:#231f20;}.cls-1,.cls-2{stroke-width:0px;}.cls-2{fill:#eab308;}</style></defs><g id="Layer_1-2"><rect class="cls-2" width="176" height="176"/><path class="cls-1" d="m80.13,46.15l-1.12,7.98h-35.34l1.05-7.98h35.41Zm-8.19-32.4l12.18.07-27.22,32.4-12.18-.07,27.22-32.4Zm13.3-7.91l-1.12,7.98h-34.22l1.12-7.98h34.22Z"/><path class="cls-1" d="m102.73,5.63c2.66,0,5.31.01,7.94.03,2.64.02,5.21.09,7.73.21,2.52.12,4.85.29,7,.53l-1.26,7.7h-18.05c-1.35,0-2.36.29-3.01.87-.65.58-1.07,1.55-1.26,2.9l-3.36,24.35c-.19,1.21-.02,2.12.49,2.73.51.61,1.42.91,2.73.91h17.85l-.21,7.77c-2.15.28-4.44.45-6.89.53s-4.92.12-7.42.14c-2.5.02-4.93.04-7.31.04-3.73,0-6.46-1.06-8.19-3.18-1.73-2.12-2.36-4.89-1.89-8.29l3.85-27.71c.42-2.94,1.59-5.26,3.5-6.96,1.91-1.7,4.5-2.55,7.77-2.55Zm-11.34,19.66h28.48l-.91,7.49h-28.76l1.19-7.49Z"/><path class="cls-1" d="m144.86,6.12l-5.18,35.97c-.14,1.21.01,2.13.45,2.76.44.63,1.34.94,2.69.94h16.73l-.21,8.12c-3.13.33-6.51.53-10.15.6-3.64.07-7.23.1-10.78.1-2.15,0-4-.44-5.56-1.33-1.56-.89-2.71-2.12-3.43-3.71-.72-1.59-.92-3.47-.59-5.67l5.25-37.79h10.78Z"/><path class="cls-1" d="m93.9,62.91c2.66,0,5.31.01,7.94.03,2.64.02,5.21.09,7.73.21,2.52.12,4.85.29,7,.53l-1.26,7.7h-18.05c-1.35,0-2.36.29-3.01.87-.65.58-1.07,1.55-1.26,2.9l-3.36,24.35c-.19,1.21-.02,2.12.49,2.73.51.61,1.42.91,2.73.91h17.85l-.21,7.77c-2.15.28-4.44.45-6.89.53s-4.92.12-7.42.14c-2.5.02-4.93.04-7.31.04-3.73,0-6.46-1.06-8.19-3.18-1.73-2.12-2.36-4.89-1.89-8.29l3.85-27.71c.42-2.94,1.59-5.26,3.5-6.96,1.91-1.7,4.5-2.55,7.77-2.55Zm-11.34,19.66h28.48l-.91,7.49h-28.76l1.19-7.49Z"/><path class="cls-1" d="m165,63.12l-6.3,44.65c-.19,1.26-.58,2.18-1.19,2.76s-1.54.87-2.8.87h-5.32c-1.17,0-2.02-.3-2.55-.91-.54-.61-1.02-1.45-1.44-2.52l-10.15-25.33c-.47-1.03-.87-2.17-1.23-3.43-.35-1.26-.66-2.5-.94-3.71h-.84c0,1.26-.04,2.53-.11,3.81-.07,1.28-.2,2.58-.39,3.88l-3.99,28.2h-10.08l6.23-44.65c.19-1.26.61-2.18,1.26-2.76.65-.58,1.61-.87,2.87-.87h5.18c1.17,0,2.01.31,2.52.94.51.63,1,1.46,1.47,2.48l9.87,24.49c.47,1.07.92,2.25,1.37,3.53.44,1.28.85,2.65,1.22,4.09h.98c-.05-1.4-.04-2.71.04-3.92.07-1.21.2-2.45.39-3.71l3.85-27.92h10.08Z"/><path class="cls-1" d="m60.26,160.26c1.26,0,2.19.32,2.8.94.61.63.82,1.6.63,2.9l-.42,3.36c-.14,1.17-.52,2.03-1.15,2.59-.63.56-1.57.84-2.83.84h-2.38c-2.66,0-3.83-1.28-3.5-3.85l.42-3.36c.33-2.29,1.68-3.43,4.06-3.43h2.38Z"/><path class="cls-1" d="m115.54,122.61l-4.2,29.25c-.65,4.9-1.78,8.81-3.39,11.72-1.61,2.92-3.85,5.03-6.72,6.33-2.87,1.31-6.61,1.96-11.23,1.96s-8.13-.69-10.95-2.06c-2.82-1.37-4.77-3.56-5.84-6.54-1.07-2.98-1.28-6.93-.63-11.83l4.06-28.83h10.71l-4.13,29.25c-.42,2.94-.5,5.26-.24,6.96.26,1.7.96,2.89,2.1,3.57,1.14.68,2.83,1.01,5.07,1.01s4.13-.36,5.53-1.08c1.4-.72,2.49-1.97,3.25-3.74.77-1.77,1.39-4.15,1.85-7.14l3.99-28.83h10.78Z"/><path class="cls-1" d="m135.56,122.61l-2.03,14.28c-.19,1.54-.5,3.06-.94,4.55-.44,1.49-1.06,3.01-1.85,4.55.33,1.4.51,2.83.56,4.3.05,1.47-.05,2.86-.28,4.16l-2.24,16.45h-10.78l6.79-48.29h10.78Zm2.52,19.45l-.98,7.42h-8.61l.98-7.42h8.61Zm24.98-19.45l-15.19,20.08c-.61.89-1.27,1.62-1.99,2.2-.72.58-1.43,1.06-2.13,1.43l-.07.28c.56.37,1.12.96,1.68,1.75.56.79,1.03,1.61,1.4,2.45l10.15,20.08h-11.69l-11.48-24.98,17.15-23.3h12.18Z"/></g></svg>