<svg id="Layer_1" data-name="Layer 1" xmlns="http://www.w3.org/2000/svg" width="94mm" height="14.57mm" viewBox="0 0 266.46 41.31">
  <defs>
    <style>
      .cls-1 {
        fill: #231f20;
      }
    </style>
  </defs>
  <g>
    <path class="cls-1" d="M195.72,417.05l-.93,6.66H165.28l.87-6.66ZM188.89,390l10.16.06-22.73,27.05-10.17-.06Zm11.1-6.61-.94,6.67H170.48l.93-6.67Z" transform="translate(-165.28 -383.22)"/>
    <path class="cls-1" d="M214.6,383.22q3.33,0,6.63,0t6.46.17q3.15.15,5.84.44l-1.05,6.43H217.4a3.65,3.65,0,0,0-2.51.73,3.82,3.82,0,0,0-1,2.42L211,413.78a2.8,2.8,0,0,0,.41,2.28,2.86,2.86,0,0,0,2.28.76h14.9l-.17,6.48a56.24,56.24,0,0,1-5.76.44q-3.08.09-6.19.12l-6.11,0q-4.68,0-6.84-2.66a8.65,8.65,0,0,1-1.58-6.92l3.22-23.14a9.21,9.21,0,0,1,2.92-5.82A9.42,9.42,0,0,1,214.6,383.22Zm-9.47,16.42h23.78l-.76,6.25h-24Z" transform="translate(-165.28 -383.22)"/>
    <path class="cls-1" d="M249,383.39l-4.33,30a3.31,3.31,0,0,0,.38,2.31,2.63,2.63,0,0,0,2.25.79h14l-.18,6.77c-2.61.28-5.43.44-8.47.5s-6,.09-9,.09a9.3,9.3,0,0,1-4.65-1.11,6.66,6.66,0,0,1-2.86-3.1,8.35,8.35,0,0,1-.5-4.73L240,383.39Z" transform="translate(-165.28 -383.22)"/>
    <path class="cls-1" d="M279.05,383.22q3.33,0,6.63,0c2.2,0,4.36.08,6.46.17s4.05.25,5.84.44l-1.05,6.43H281.85a3.67,3.67,0,0,0-2.51.73,3.87,3.87,0,0,0-1,2.42l-2.81,20.34a2.8,2.8,0,0,0,.41,2.28,2.86,2.86,0,0,0,2.28.76h14.9l-.17,6.48a55.8,55.8,0,0,1-5.76.44c-2,.06-4.11.1-6.19.12l-6.11,0q-4.66,0-6.83-2.66a8.61,8.61,0,0,1-1.58-6.92l3.21-23.14a9.25,9.25,0,0,1,2.92-5.82A9.42,9.42,0,0,1,279.05,383.22Zm-9.47,16.42h23.79l-.76,6.25h-24Z" transform="translate(-165.28 -383.22)"/>
    <path class="cls-1" d="M338.42,383.39l-5.26,37.29a3.94,3.94,0,0,1-1,2.3,3.27,3.27,0,0,1-2.34.73h-4.44a2.67,2.67,0,0,1-2.13-.76,6.83,6.83,0,0,1-1.2-2.1l-8.48-21.15a19.19,19.19,0,0,1-1-2.87c-.29-1.05-.55-2.08-.79-3.09h-.7q0,1.58-.09,3.18c-.05,1.07-.16,2.15-.32,3.24l-3.33,23.55h-8.41l5.2-37.28a3.68,3.68,0,0,1,1.05-2.31,3.51,3.51,0,0,1,2.4-.73h4.32a2.58,2.58,0,0,1,2.1.79,9.59,9.59,0,0,1,1.23,2.08l8.24,20.45c.39.9.77,1.88,1.14,3s.71,2.21,1,3.42h.82q-.06-1.75,0-3.27c.06-1,.16-2.05.32-3.1L330,383.39Z" transform="translate(-165.28 -383.22)"/>
    <path class="cls-1" d="M345.9,414.83a3.11,3.11,0,0,1,2.34.79,2.81,2.81,0,0,1,.52,2.43l-.35,2.8a3.36,3.36,0,0,1-1,2.16,3.48,3.48,0,0,1-2.37.7h-2q-3.33,0-2.92-3.21l.35-2.8a3,3,0,0,1,3.39-2.87Z" transform="translate(-165.28 -383.22)"/>
    <path class="cls-1" d="M392.06,383.39l-3.5,24.43a28.16,28.16,0,0,1-2.84,9.79,12,12,0,0,1-5.61,5.29,22.82,22.82,0,0,1-9.38,1.63,20.87,20.87,0,0,1-9.14-1.72,9.35,9.35,0,0,1-4.88-5.47q-1.35-3.73-.53-9.87l3.39-24.08h8.94l-3.45,24.43a21.2,21.2,0,0,0-.2,5.81,3.87,3.87,0,0,0,1.75,3,8.44,8.44,0,0,0,4.24.85,10.15,10.15,0,0,0,4.62-.9,6.1,6.1,0,0,0,2.71-3.13,24.78,24.78,0,0,0,1.55-6l3.33-24.08Z" transform="translate(-165.28 -383.22)"/>
    <path class="cls-1" d="M408.77,383.39l-1.69,11.92a23.31,23.31,0,0,1-.79,3.8,21.86,21.86,0,0,1-1.55,3.8,18.67,18.67,0,0,1,.47,3.59A16.32,16.32,0,0,1,405,410l-1.87,13.73h-9l5.66-40.32Zm2.11,16.25-.82,6.19h-7.19l.82-6.19Zm20.86-16.25-12.68,16.77a8.37,8.37,0,0,1-1.67,1.85,11.74,11.74,0,0,1-1.78,1.19l-.06.24a5.47,5.47,0,0,1,1.4,1.46,11.64,11.64,0,0,1,1.17,2l8.48,16.77h-9.76l-9.59-20.86,14.32-19.46Z" transform="translate(-165.28 -383.22)"/>
  </g>
</svg>
