<?xml version="1.0" encoding="UTF-8"?><svg id="Layer_2" xmlns="http://www.w3.org/2000/svg" viewBox="0 0 175.14 91.31"><defs><style>.cls-1{fill:#231f20;stroke-width:0px;}</style></defs><g id="Layer_1-2"><path class="cls-1" d="m30.44,34.83l-.93,6.66H0l.88-6.66h29.57Zm-6.84-27.06l10.17.06-22.73,27.06-10.17-.06L23.61,7.78Zm11.1-6.6l-.94,6.66H5.2l.94-6.66h28.57Z"/><path class="cls-1" d="m49.32,1c2.22,0,4.43,0,6.63.03,2.2.02,4.35.08,6.46.18,2.1.1,4.05.24,5.84.44l-1.05,6.43h-15.08c-1.13,0-1.97.24-2.51.73-.55.49-.9,1.3-1.05,2.43l-2.8,20.33c-.16,1.01-.02,1.77.41,2.28.43.51,1.19.76,2.28.76h14.9l-.18,6.49c-1.79.23-3.71.38-5.76.44s-4.11.1-6.19.12c-2.08.02-4.12.03-6.11.03-3.12,0-5.4-.89-6.84-2.66-1.44-1.77-1.97-4.08-1.58-6.92l3.21-23.14c.35-2.45,1.32-4.39,2.92-5.81,1.6-1.42,3.76-2.13,6.49-2.13Zm-9.47,16.42h23.78l-.76,6.25h-24.02l.99-6.25Z"/><path class="cls-1" d="m85.68.18l-4.32,30.04c-.12,1.01,0,1.78.38,2.31.37.53,1.12.79,2.25.79h13.97l-.18,6.78c-2.61.27-5.43.44-8.47.5-3.04.06-6.04.09-9,.09-1.79,0-3.34-.37-4.65-1.11-1.31-.74-2.26-1.77-2.86-3.1-.6-1.32-.77-2.9-.5-4.73L76.68.18h9Z"/><path class="cls-1" d="m115.77,0c2.22,0,4.43,0,6.63.03,2.2.02,4.35.08,6.46.18,2.1.1,4.05.24,5.84.44l-1.05,6.43h-15.08c-1.13,0-1.97.24-2.51.73-.55.49-.9,1.3-1.05,2.43l-2.8,20.33c-.16,1.01-.02,1.77.41,2.28.43.51,1.19.76,2.28.76h14.9l-.18,6.49c-1.79.23-3.71.38-5.76.44s-4.11.1-6.19.12c-2.08.02-4.12.03-6.11.03-3.12,0-5.4-.89-6.84-2.66-1.44-1.77-1.97-4.08-1.58-6.92l3.21-23.14c.35-2.45,1.32-4.39,2.92-5.81,1.6-1.42,3.76-2.13,6.49-2.13Zm-9.47,16.42h23.78l-.76,6.25h-24.02l.99-6.25Z"/><path class="cls-1" d="m175.14.18l-5.26,37.28c-.16,1.05-.49,1.82-.99,2.31s-1.29.73-2.34.73h-4.44c-.97,0-1.69-.25-2.13-.76-.45-.51-.85-1.21-1.2-2.1l-8.47-21.15c-.39-.86-.73-1.81-1.02-2.86-.29-1.05-.55-2.08-.79-3.1h-.7c0,1.05-.03,2.11-.09,3.18-.06,1.07-.17,2.15-.32,3.24l-3.33,23.55h-8.41l5.2-37.28c.16-1.05.51-1.82,1.05-2.31.54-.49,1.34-.73,2.4-.73h4.32c.97,0,1.68.26,2.1.79.43.53.84,1.22,1.23,2.07l8.24,20.45c.39.9.77,1.88,1.14,2.95.37,1.07.71,2.21,1.02,3.42h.82c-.04-1.17-.03-2.26.03-3.27.06-1.01.17-2.04.32-3.1L166.73.18h8.41Z"/><path class="cls-1" d="m42.62,81.61c1.05,0,1.83.26,2.34.79.51.53.68,1.33.53,2.43l-.35,2.8c-.12.97-.44,1.69-.96,2.16-.53.47-1.31.7-2.37.7h-1.99c-2.22,0-3.19-1.07-2.92-3.21l.35-2.8c.27-1.91,1.4-2.86,3.39-2.86h1.99Z"/><path class="cls-1" d="m88.78,50.18l-3.51,24.43c-.55,4.09-1.49,7.35-2.83,9.79-1.34,2.44-3.21,4.2-5.61,5.29-2.4,1.09-5.52,1.64-9.38,1.64s-6.79-.58-9.15-1.72c-2.36-1.15-3.98-2.97-4.88-5.46-.9-2.49-1.07-5.78-.53-9.88l3.39-24.08h8.94l-3.45,24.43c-.35,2.45-.42,4.39-.2,5.81.21,1.42.8,2.42,1.75,2.98.95.56,2.37.85,4.24.85s3.45-.3,4.62-.91c1.17-.6,2.08-1.65,2.72-3.13.64-1.48,1.16-3.47,1.55-5.96l3.33-24.08h9Z"/><path class="cls-1" d="m105.5,50.18l-1.7,11.92c-.16,1.29-.42,2.55-.79,3.8-.37,1.25-.89,2.51-1.55,3.8.27,1.17.43,2.37.47,3.59.04,1.23-.04,2.39-.23,3.48l-1.87,13.73h-9l5.67-40.32h9Zm2.1,16.24l-.82,6.19h-7.19l.82-6.19h7.19Zm20.86-16.24l-12.68,16.77c-.51.74-1.06,1.35-1.67,1.84-.6.49-1.2.89-1.78,1.2l-.06.23c.47.31.93.8,1.4,1.46.47.66.86,1.34,1.17,2.04l8.47,16.77h-9.76l-9.58-20.86,14.32-19.46h10.17Z"/></g></svg>